<svg width="24" height="24" viewBox="0 0 24 24" fill="none" xmlns="http://www.w3.org/2000/svg">
<mask id="mask0_475_8760" style="mask-type:alpha" maskUnits="userSpaceOnUse" x="0" y="0" width="24" height="24">
<rect width="24" height="24" fill="#1B1B1F"/>
</mask>
<g mask="url(#mask0_475_8760)">
<path d="M10.5748 16.3369L17.7248 9.18856L16.1498 7.63892L10.5748 13.2126L7.7998 10.4383L6.2498 11.9879L10.5748 16.3369ZM5.0748 21.1858C4.44147 21.1858 3.90414 20.9652 3.4628 20.5239C3.0208 20.082 2.7998 19.5445 2.7998 18.9113V5.06451C2.7998 4.43133 3.0208 3.89378 3.4628 3.45189C3.90414 3.01065 4.44147 2.79004 5.0748 2.79004H18.9248C19.5581 2.79004 20.0958 3.01065 20.5378 3.45189C20.9791 3.89378 21.1998 4.43133 21.1998 5.06451V18.9113C21.1998 19.5445 20.9791 20.082 20.5378 20.5239C20.0958 20.9652 19.5581 21.1858 18.9248 21.1858H5.0748ZM5.0748 18.9113H18.9248V5.06451H5.0748V18.9113Z" fill="#131010"/>
</g>
</svg>
