<svg width="68" height="67" viewBox="0 0 68 67" fill="none" xmlns="http://www.w3.org/2000/svg">
<path d="M57.4504 52.1093V35.175C57.4502 34.8553 57.3696 34.5408 57.2159 34.2605C57.0814 34.0374 56.8797 33.8626 56.6397 33.7613C56.3884 33.6555 56.1233 33.5856 55.8525 33.5536C55.5669 33.518 55.2794 33.5001 54.9915 33.5H54.1004V17.142C54.2043 16.9142 54.355 16.6462 54.546 16.3313C54.7369 16.0164 54.9212 15.668 55.0954 15.2861C55.2696 14.9008 55.427 14.5424 55.5644 14.2141C55.6862 13.9587 55.7578 13.6824 55.7754 13.4C55.7259 13.037 55.6475 12.6785 55.5409 12.328C55.3848 11.7716 55.2094 11.2207 55.015 10.6765C54.8172 10.117 54.6162 9.55863 54.412 9.00147C54.27 8.62278 54.1404 8.23956 54.0234 7.85242C53.8957 7.51998 53.6775 7.22989 53.3936 7.01492C53.1148 6.80541 52.7742 6.69462 52.4254 6.70002H45.7254C45.3676 6.71481 45.0219 6.83355 44.7305 7.04172C44.4441 7.23651 44.2317 7.5221 44.1275 7.85242C43.9944 8.24664 43.8548 8.63865 43.7087 9.02827C43.5071 9.58288 43.3161 10.1413 43.1359 10.7033C42.9416 11.2962 42.7674 11.8456 42.6099 12.3548C42.4525 12.8573 42.3754 13.2091 42.3754 13.4C42.3754 13.6446 42.4424 13.9226 42.5865 14.2375C42.7238 14.5524 42.888 14.9008 43.0823 15.2861C43.3938 15.9105 43.7166 16.5292 44.0504 17.142V33.5H43.1593C42.8626 33.4985 42.566 33.5164 42.2716 33.5536C41.9977 33.5862 41.7314 33.6655 41.4843 33.7881C41.2531 33.9001 41.0555 34.0711 40.9115 34.2839C40.7557 34.554 40.6823 34.8638 40.7004 35.175V52.1093C40.7004 53.2416 40.9282 54.3069 41.3805 55.3018C41.8361 56.2968 42.4458 57.1678 43.2129 57.9182C44.7786 59.451 46.8843 60.3065 49.0754 60.3C50.191 60.3 51.2563 60.0823 52.268 59.6468C53.2558 59.226 54.1601 58.6314 54.9379 57.8914C55.7113 57.1556 56.3338 56.276 56.7704 55.3018C57.2255 54.2994 57.4575 53.2101 57.4504 52.1093ZM50.7504 33.5H47.4004V16.75C47.3999 16.4855 47.3368 16.2249 47.2162 15.9896L45.8561 13.2694L46.9281 10.05H51.2228L52.2948 13.266L50.9347 15.9896C50.8141 16.2249 50.751 16.4855 50.7504 16.75V33.5ZM44.0504 40.2V36.85H54.1004V40.2H44.0504ZM54.1004 43.55V51.925C54.1163 52.5916 53.9824 53.2533 53.7085 53.8613C53.446 54.4662 53.0734 55.0172 52.6097 55.4861C51.6701 56.42 50.4002 56.946 49.0754 56.95C48.4087 56.9669 47.7468 56.833 47.1391 56.5581C46.226 56.1748 45.446 55.531 44.8966 54.707C44.3473 53.883 44.053 52.9153 44.0504 51.925V43.55H54.1004ZM20.6004 8.51572C20.6008 8.24109 20.5337 7.97058 20.4049 7.72802C20.2761 7.48545 20.0897 7.27826 19.862 7.12471C19.6343 6.97115 19.3724 6.87594 19.0992 6.84744C18.8261 6.81895 18.5501 6.85806 18.2956 6.96132C15.6016 8.05098 13.2798 9.89595 11.6097 12.2742C9.93966 14.6524 8.99241 17.4626 8.88199 20.3666C8.77156 23.2706 9.50267 26.1446 10.9873 28.6428C12.472 31.141 14.6469 33.157 17.2504 34.4481V53.6C17.2504 55.377 17.9563 57.0811 19.2128 58.3376C20.4693 59.5941 22.1735 60.3 23.9504 60.3C25.7274 60.3 27.4316 59.5941 28.6881 58.3376C29.9445 57.0811 30.6504 55.377 30.6504 53.6V34.4514C33.2551 33.1613 35.4313 31.1457 36.9169 28.6473C38.4025 26.149 39.1342 23.2744 39.0237 20.3698C38.9133 17.4652 37.9654 14.6544 36.2944 12.2761C34.6234 9.89776 32.3004 8.05323 29.6052 6.96467C29.3508 6.86141 29.0748 6.8223 28.8017 6.85079C28.5285 6.87929 28.2666 6.9745 28.0389 7.12806C27.8112 7.28161 27.6247 7.4888 27.496 7.73137C27.3672 7.97393 27.3001 8.24444 27.3004 8.51907V20.1C27.3004 20.9885 26.9475 21.8406 26.3192 22.4688C25.691 23.0971 24.8389 23.45 23.9504 23.45C23.062 23.45 22.2099 23.0971 21.5816 22.4688C20.9534 21.8406 20.6004 20.9885 20.6004 20.1V8.51572ZM12.2254 20.9442C12.2254 16.9577 14.212 13.4402 17.2504 11.3163V20.0933C17.2504 21.8703 17.9563 23.5744 19.2128 24.8309C20.4693 26.0874 22.1735 26.7933 23.9504 26.7933C25.7274 26.7933 27.4316 26.0874 28.6881 24.8309C29.9445 23.5744 30.6504 21.8703 30.6504 20.0933V11.3163C32.3848 12.5238 33.7607 14.1774 34.6327 16.1024C35.5047 18.0273 35.8403 20.1522 35.6042 22.2522C35.3681 24.3522 34.569 26.3495 33.2913 28.0327C32.0136 29.716 30.3048 31.0228 28.3456 31.815C28.0369 31.9402 27.7726 32.1547 27.5864 32.431C27.4002 32.7073 27.3006 33.0328 27.3004 33.366V53.6C27.3004 54.4885 26.9475 55.3406 26.3192 55.9688C25.691 56.5971 24.8389 56.95 23.9504 56.95C23.062 56.95 22.2099 56.5971 21.5816 55.9688C20.9534 55.3406 20.6004 54.4885 20.6004 53.6V33.366C20.6002 33.0328 20.5007 32.7073 20.3145 32.431C20.1283 32.1547 19.864 31.9402 19.5552 31.815C17.3888 30.9385 15.5336 29.4348 14.2276 27.4967C12.9216 25.5586 12.2244 23.2746 12.2254 20.9375V20.9442Z" fill="white"/>
</svg>
